<mxfile host="Electron" agent="Mozilla/5.0 (Macintosh; Intel Mac OS X 10_15_7) AppleWebKit/537.36 (KHTML, like Gecko) draw.io/26.1.1 Chrome/132.0.6834.210 Electron/34.3.3 Safari/537.36" version="26.1.1">
  <diagram name="Page-1" id="tJs56rewr4EwDngfg4JY">
    <mxGraphModel dx="1558" dy="1642" grid="1" gridSize="10" guides="1" tooltips="1" connect="1" arrows="1" fold="1" page="0" pageScale="1" pageWidth="827" pageHeight="1169" math="0" shadow="0">
      <root>
        <mxCell id="0" />
        <mxCell id="1" parent="0" />
        <mxCell id="E23nvp9HVf6QD7ls7TfW-6" value="" style="edgeStyle=none;curved=1;rounded=0;orthogonalLoop=1;jettySize=auto;html=1;fontSize=12;startSize=8;endSize=8;labelBackgroundColor=none;strokeColor=#23445D;fontColor=default;" parent="1" source="E23nvp9HVf6QD7ls7TfW-2" target="E23nvp9HVf6QD7ls7TfW-5" edge="1">
          <mxGeometry relative="1" as="geometry" />
        </mxCell>
        <mxCell id="E23nvp9HVf6QD7ls7TfW-64" style="edgeStyle=orthogonalEdgeStyle;rounded=0;orthogonalLoop=1;jettySize=auto;html=1;entryX=0.5;entryY=1;entryDx=0;entryDy=0;strokeColor=#23445D;fontSize=12;startSize=8;endSize=8;exitX=0.5;exitY=0;exitDx=0;exitDy=0;" parent="1" source="E23nvp9HVf6QD7ls7TfW-2" target="E23nvp9HVf6QD7ls7TfW-42" edge="1">
          <mxGeometry relative="1" as="geometry" />
        </mxCell>
        <mxCell id="E23nvp9HVf6QD7ls7TfW-2" value="&lt;font style=&quot;font-size: 13px;&quot;&gt;Model&lt;/font&gt;" style="whiteSpace=wrap;html=1;rounded=0;labelBackgroundColor=none;fillColor=#182E3E;strokeColor=#FFFFFF;fontColor=#FFFFFF;" parent="1" vertex="1">
          <mxGeometry x="-10" y="120" width="120" height="60" as="geometry" />
        </mxCell>
        <mxCell id="E23nvp9HVf6QD7ls7TfW-8" value="" style="edgeStyle=none;curved=1;rounded=0;orthogonalLoop=1;jettySize=auto;html=1;fontSize=12;startSize=8;endSize=8;labelBackgroundColor=none;strokeColor=#23445D;fontColor=default;" parent="1" source="E23nvp9HVf6QD7ls7TfW-5" target="E23nvp9HVf6QD7ls7TfW-7" edge="1">
          <mxGeometry relative="1" as="geometry" />
        </mxCell>
        <mxCell id="E23nvp9HVf6QD7ls7TfW-5" value="&lt;font style=&quot;font-size: 13px;&quot;&gt;Activations&lt;/font&gt;" style="whiteSpace=wrap;html=1;rounded=0;labelBackgroundColor=none;fillColor=#182E3E;strokeColor=#FFFFFF;fontColor=#FFFFFF;" parent="1" vertex="1">
          <mxGeometry x="230" y="120" width="120" height="60" as="geometry" />
        </mxCell>
        <mxCell id="E23nvp9HVf6QD7ls7TfW-58" style="edgeStyle=orthogonalEdgeStyle;rounded=0;orthogonalLoop=1;jettySize=auto;html=1;entryX=0.5;entryY=1;entryDx=0;entryDy=0;strokeColor=#23445D;fontSize=12;startSize=8;endSize=8;endArrow=classic;endFill=1;exitX=0.5;exitY=0;exitDx=0;exitDy=0;" parent="1" source="E23nvp9HVf6QD7ls7TfW-7" target="E23nvp9HVf6QD7ls7TfW-42" edge="1">
          <mxGeometry relative="1" as="geometry" />
        </mxCell>
        <mxCell id="E23nvp9HVf6QD7ls7TfW-7" value="&lt;font style=&quot;font-size: 13px;&quot;&gt;SAE&lt;/font&gt;" style="whiteSpace=wrap;html=1;rounded=0;labelBackgroundColor=none;fillColor=#182E3E;strokeColor=#FFFFFF;fontColor=#FFFFFF;" parent="1" vertex="1">
          <mxGeometry x="470" y="120" width="120" height="60" as="geometry" />
        </mxCell>
        <mxCell id="E23nvp9HVf6QD7ls7TfW-35" value="" style="group;labelBackgroundColor=none;fillColor=#ffe6cc;strokeColor=#d79b00;" parent="1" vertex="1" connectable="0">
          <mxGeometry x="-220" y="110" width="120" height="90.21837837837839" as="geometry" />
        </mxCell>
        <mxCell id="E23nvp9HVf6QD7ls7TfW-28" value="" style="outlineConnect=0;fillColor=#182E3E;strokeColor=#FFFFFF;dashed=0;verticalLabelPosition=bottom;verticalAlign=top;align=center;html=1;fontSize=12;fontStyle=0;aspect=fixed;pointerEvents=1;shape=mxgraph.aws4.documents;strokeWidth=1;fontColor=#FFFFFF;container=0;labelBackgroundColor=none;" parent="E23nvp9HVf6QD7ls7TfW-35" vertex="1">
          <mxGeometry x="36.94" y="10" width="46.126126126126124" height="56.21621621621621" as="geometry" />
        </mxCell>
        <mxCell id="E23nvp9HVf6QD7ls7TfW-29" value="&lt;font color=&quot;#000033&quot; style=&quot;font-size: 12px;&quot;&gt;Data&lt;/font&gt;" style="text;html=1;align=center;verticalAlign=middle;resizable=0;points=[];autosize=1;strokeColor=none;fillColor=none;fontSize=16;container=0;labelBackgroundColor=none;fontColor=#FFFFFF;" parent="E23nvp9HVf6QD7ls7TfW-35" vertex="1">
          <mxGeometry x="35" y="60.21837837837839" width="50" height="30" as="geometry" />
        </mxCell>
        <mxCell id="E23nvp9HVf6QD7ls7TfW-36" style="edgeStyle=none;curved=1;rounded=0;orthogonalLoop=1;jettySize=auto;html=1;fontSize=12;startSize=8;endSize=8;labelBackgroundColor=none;strokeColor=#23445D;fontColor=default;" parent="1" source="E23nvp9HVf6QD7ls7TfW-28" target="E23nvp9HVf6QD7ls7TfW-2" edge="1">
          <mxGeometry relative="1" as="geometry" />
        </mxCell>
        <mxCell id="E23nvp9HVf6QD7ls7TfW-42" value="&lt;font style=&quot;font-size: 13px;&quot;&gt;Evaluation&lt;/font&gt;" style="whiteSpace=wrap;html=1;rounded=0;labelBackgroundColor=none;fillColor=#182E3E;strokeColor=#FFFFFF;fontColor=#FFFFFF;" parent="1" vertex="1">
          <mxGeometry x="230" width="120" height="60" as="geometry" />
        </mxCell>
        <mxCell id="E23nvp9HVf6QD7ls7TfW-66" style="edgeStyle=none;curved=1;rounded=0;orthogonalLoop=1;jettySize=auto;html=1;entryX=0.5;entryY=1;entryDx=0;entryDy=0;strokeColor=#23445D;fontSize=12;startSize=8;endSize=8;" parent="1" source="E23nvp9HVf6QD7ls7TfW-72" target="E23nvp9HVf6QD7ls7TfW-69" edge="1">
          <mxGeometry relative="1" as="geometry" />
        </mxCell>
        <mxCell id="E23nvp9HVf6QD7ls7TfW-67" style="edgeStyle=orthogonalEdgeStyle;rounded=0;orthogonalLoop=1;jettySize=auto;html=1;entryX=0.5;entryY=1;entryDx=0;entryDy=0;strokeColor=#23445D;fontSize=12;startSize=8;endSize=8;" parent="1" source="E23nvp9HVf6QD7ls7TfW-72" target="E23nvp9HVf6QD7ls7TfW-71" edge="1">
          <mxGeometry relative="1" as="geometry" />
        </mxCell>
        <mxCell id="E23nvp9HVf6QD7ls7TfW-68" style="edgeStyle=orthogonalEdgeStyle;rounded=0;orthogonalLoop=1;jettySize=auto;html=1;entryX=0.5;entryY=1;entryDx=0;entryDy=0;strokeColor=#23445D;fontSize=12;startSize=8;endSize=8;" parent="1" source="E23nvp9HVf6QD7ls7TfW-72" target="E23nvp9HVf6QD7ls7TfW-70" edge="1">
          <mxGeometry relative="1" as="geometry" />
        </mxCell>
        <mxCell id="E23nvp9HVf6QD7ls7TfW-69" value="Downstream Perfomance" style="whiteSpace=wrap;html=1;rounded=0;labelBackgroundColor=none;fillColor=#182E3E;strokeColor=#FFFFFF;fontColor=#FFFFFF;" parent="1" vertex="1">
          <mxGeometry x="230" y="-460" width="120" height="40" as="geometry" />
        </mxCell>
        <mxCell id="E23nvp9HVf6QD7ls7TfW-70" value="Refusal" style="whiteSpace=wrap;html=1;rounded=0;labelBackgroundColor=none;fillColor=#182E3E;strokeColor=#FFFFFF;fontColor=#FFFFFF;" parent="1" vertex="1">
          <mxGeometry x="80" y="-460" width="120" height="40" as="geometry" />
        </mxCell>
        <mxCell id="E23nvp9HVf6QD7ls7TfW-71" value="SAE Perfomance" style="whiteSpace=wrap;html=1;rounded=0;labelBackgroundColor=none;fillColor=#182E3E;strokeColor=#FFFFFF;fontColor=#FFFFFF;" parent="1" vertex="1">
          <mxGeometry x="380" y="-460" width="120" height="40" as="geometry" />
        </mxCell>
        <mxCell id="E23nvp9HVf6QD7ls7TfW-72" value="" style="rhombus;whiteSpace=wrap;html=1;strokeColor=#FFFFFF;fontColor=#FFFFFF;fillColor=#182E3E;" parent="1" vertex="1">
          <mxGeometry x="270" y="-380" width="40" height="40" as="geometry" />
        </mxCell>
        <mxCell id="uMrA-mLDvD93864zilOM-2" value="" style="edgeStyle=none;curved=1;rounded=0;orthogonalLoop=1;jettySize=auto;html=1;fontSize=12;startSize=8;endSize=8;labelBackgroundColor=none;strokeColor=#23445D;fontColor=default;" edge="1" parent="1" target="uMrA-mLDvD93864zilOM-5">
          <mxGeometry relative="1" as="geometry">
            <mxPoint x="110" y="320" as="sourcePoint" />
          </mxGeometry>
        </mxCell>
        <mxCell id="uMrA-mLDvD93864zilOM-47" style="edgeStyle=none;curved=1;rounded=0;orthogonalLoop=1;jettySize=auto;html=1;fontSize=12;startSize=8;endSize=8;" edge="1" parent="1" source="uMrA-mLDvD93864zilOM-48" target="uMrA-mLDvD93864zilOM-52">
          <mxGeometry relative="1" as="geometry">
            <mxPoint x="205" y="616.89" as="targetPoint" />
          </mxGeometry>
        </mxCell>
        <mxCell id="uMrA-mLDvD93864zilOM-48" value="&lt;font&gt;Trained SAE&lt;/font&gt;" style="whiteSpace=wrap;html=1;rounded=0;labelBackgroundColor=none;fillColor=none;strokeColor=light-dark(#182e3f, #5c79a3);verticalAlign=top;" vertex="1" parent="1">
          <mxGeometry x="-5" y="570" width="120" height="90" as="geometry" />
        </mxCell>
        <mxCell id="uMrA-mLDvD93864zilOM-49" value="" style="outlineConnect=0;fillColor=#182E3E;strokeColor=#FFFFFF;dashed=0;verticalLabelPosition=bottom;verticalAlign=top;align=center;html=1;fontSize=12;fontStyle=0;aspect=fixed;pointerEvents=1;shape=mxgraph.aws4.documents;strokeWidth=1;fontColor=#FFFFFF;container=0;labelBackgroundColor=none;" vertex="1" parent="1">
          <mxGeometry x="-168.06" y="586.89" width="46.126126126126124" height="56.21621621621621" as="geometry" />
        </mxCell>
        <mxCell id="uMrA-mLDvD93864zilOM-50" value="&lt;font color=&quot;#000033&quot; style=&quot;font-size: 12px;&quot;&gt;Harmful Data&lt;/font&gt;" style="text;html=1;align=center;verticalAlign=middle;resizable=0;points=[];autosize=1;strokeColor=none;fillColor=none;fontSize=16;container=0;labelBackgroundColor=none;fontColor=#FFFFFF;" vertex="1" parent="1">
          <mxGeometry x="-190" y="637.1083783783783" width="90" height="30" as="geometry" />
        </mxCell>
        <mxCell id="uMrA-mLDvD93864zilOM-51" style="edgeStyle=none;curved=1;rounded=0;orthogonalLoop=1;jettySize=auto;html=1;fontSize=12;startSize=8;endSize=8;labelBackgroundColor=none;strokeColor=#23445D;fontColor=default;entryX=0;entryY=0.5;entryDx=0;entryDy=0;" edge="1" parent="1" source="uMrA-mLDvD93864zilOM-49" target="uMrA-mLDvD93864zilOM-48">
          <mxGeometry relative="1" as="geometry">
            <mxPoint x="5" y="615.89" as="targetPoint" />
          </mxGeometry>
        </mxCell>
        <mxCell id="uMrA-mLDvD93864zilOM-68" value="" style="edgeStyle=none;curved=1;rounded=0;orthogonalLoop=1;jettySize=auto;html=1;fontSize=12;startSize=8;endSize=8;" edge="1" parent="1" source="uMrA-mLDvD93864zilOM-52" target="uMrA-mLDvD93864zilOM-67">
          <mxGeometry relative="1" as="geometry" />
        </mxCell>
        <mxCell id="uMrA-mLDvD93864zilOM-69" value="Steer" style="edgeLabel;html=1;align=center;verticalAlign=middle;resizable=0;points=[];fontSize=12;" vertex="1" connectable="0" parent="uMrA-mLDvD93864zilOM-68">
          <mxGeometry x="0.0267" y="-2" relative="1" as="geometry">
            <mxPoint as="offset" />
          </mxGeometry>
        </mxCell>
        <mxCell id="uMrA-mLDvD93864zilOM-52" value="&lt;font style=&quot;font-size: 13px;&quot;&gt;Feature&lt;/font&gt;" style="whiteSpace=wrap;html=1;rounded=0;labelBackgroundColor=none;fillColor=#182E3E;strokeColor=#FFFFFF;fontColor=#FFFFFF;" vertex="1" parent="1">
          <mxGeometry x="-5" y="730" width="120" height="60" as="geometry" />
        </mxCell>
        <mxCell id="uMrA-mLDvD93864zilOM-53" value="" style="group" vertex="1" connectable="0" parent="1">
          <mxGeometry x="5" y="596.89" width="100" height="55" as="geometry" />
        </mxCell>
        <mxCell id="uMrA-mLDvD93864zilOM-54" value="&lt;font style=&quot;font-size: 11px;&quot;&gt;Decoder&lt;/font&gt;" style="shape=trapezoid;perimeter=trapezoidPerimeter;whiteSpace=wrap;html=1;fixedSize=1;size=17;" vertex="1" parent="uMrA-mLDvD93864zilOM-53">
          <mxGeometry width="100" height="17" as="geometry" />
        </mxCell>
        <mxCell id="uMrA-mLDvD93864zilOM-55" value="&lt;font style=&quot;font-size: 11px;&quot;&gt;Encoder&lt;/font&gt;" style="shape=trapezoid;perimeter=trapezoidPerimeter;whiteSpace=wrap;html=1;fixedSize=1;size=20;flipH=0;flipV=1;" vertex="1" parent="uMrA-mLDvD93864zilOM-53">
          <mxGeometry y="38" width="100" height="17" as="geometry" />
        </mxCell>
        <mxCell id="uMrA-mLDvD93864zilOM-56" value="" style="ellipse;whiteSpace=wrap;html=1;aspect=fixed;" vertex="1" parent="uMrA-mLDvD93864zilOM-53">
          <mxGeometry x="70" y="23" width="10" height="10" as="geometry" />
        </mxCell>
        <mxCell id="uMrA-mLDvD93864zilOM-57" value="" style="ellipse;whiteSpace=wrap;html=1;aspect=fixed;" vertex="1" parent="uMrA-mLDvD93864zilOM-53">
          <mxGeometry x="60" y="23" width="10" height="10" as="geometry" />
        </mxCell>
        <mxCell id="uMrA-mLDvD93864zilOM-58" value="" style="ellipse;whiteSpace=wrap;html=1;aspect=fixed;" vertex="1" parent="uMrA-mLDvD93864zilOM-53">
          <mxGeometry x="50" y="23" width="10" height="10" as="geometry" />
        </mxCell>
        <mxCell id="uMrA-mLDvD93864zilOM-59" value="" style="ellipse;whiteSpace=wrap;html=1;aspect=fixed;fillColor=light-dark(#FFFFFF,#A5A5A5);" vertex="1" parent="uMrA-mLDvD93864zilOM-53">
          <mxGeometry x="40" y="23" width="10" height="10" as="geometry" />
        </mxCell>
        <mxCell id="uMrA-mLDvD93864zilOM-60" value="" style="ellipse;whiteSpace=wrap;html=1;aspect=fixed;" vertex="1" parent="uMrA-mLDvD93864zilOM-53">
          <mxGeometry x="30" y="23" width="10" height="10" as="geometry" />
        </mxCell>
        <mxCell id="uMrA-mLDvD93864zilOM-61" value="" style="ellipse;whiteSpace=wrap;html=1;aspect=fixed;fillColor=#5C5C5C;" vertex="1" parent="uMrA-mLDvD93864zilOM-53">
          <mxGeometry x="20" y="23" width="10" height="10" as="geometry" />
        </mxCell>
        <mxCell id="uMrA-mLDvD93864zilOM-62" value="" style="ellipse;whiteSpace=wrap;html=1;aspect=fixed;fillColor=#FFFFFF;" vertex="1" parent="uMrA-mLDvD93864zilOM-53">
          <mxGeometry x="10" y="23" width="10" height="10" as="geometry" />
        </mxCell>
        <mxCell id="uMrA-mLDvD93864zilOM-63" value="" style="ellipse;whiteSpace=wrap;html=1;aspect=fixed;fillColor=#FCFCFC;" vertex="1" parent="uMrA-mLDvD93864zilOM-53">
          <mxGeometry y="23" width="10" height="10" as="geometry" />
        </mxCell>
        <mxCell id="uMrA-mLDvD93864zilOM-64" value="" style="ellipse;whiteSpace=wrap;html=1;aspect=fixed;" vertex="1" parent="uMrA-mLDvD93864zilOM-53">
          <mxGeometry x="80" y="23" width="10" height="10" as="geometry" />
        </mxCell>
        <mxCell id="uMrA-mLDvD93864zilOM-65" value="" style="ellipse;whiteSpace=wrap;html=1;aspect=fixed;" vertex="1" parent="uMrA-mLDvD93864zilOM-53">
          <mxGeometry x="90" y="23" width="10" height="10" as="geometry" />
        </mxCell>
        <mxCell id="uMrA-mLDvD93864zilOM-67" value="Modified Model" style="whiteSpace=wrap;html=1;fillColor=#182E3E;strokeColor=#FFFFFF;fontColor=#FFFFFF;rounded=0;labelBackgroundColor=none;" vertex="1" parent="1">
          <mxGeometry x="230" y="730" width="120" height="60" as="geometry" />
        </mxCell>
        <mxCell id="uMrA-mLDvD93864zilOM-90" style="edgeStyle=none;curved=1;rounded=0;orthogonalLoop=1;jettySize=auto;html=1;fontSize=12;startSize=8;endSize=8;" edge="1" parent="1" source="uMrA-mLDvD93864zilOM-91" target="uMrA-mLDvD93864zilOM-95">
          <mxGeometry relative="1" as="geometry">
            <mxPoint x="195" y="316.89" as="targetPoint" />
          </mxGeometry>
        </mxCell>
        <mxCell id="uMrA-mLDvD93864zilOM-91" value="&lt;font&gt;Trained SAE&lt;/font&gt;" style="whiteSpace=wrap;html=1;rounded=0;labelBackgroundColor=none;fillColor=none;strokeColor=light-dark(#182e3f, #5c79a3);verticalAlign=top;" vertex="1" parent="1">
          <mxGeometry x="-15" y="270" width="120" height="90" as="geometry" />
        </mxCell>
        <mxCell id="uMrA-mLDvD93864zilOM-92" value="" style="outlineConnect=0;fillColor=#182E3E;strokeColor=#FFFFFF;dashed=0;verticalLabelPosition=bottom;verticalAlign=top;align=center;html=1;fontSize=12;fontStyle=0;aspect=fixed;pointerEvents=1;shape=mxgraph.aws4.documents;strokeWidth=1;fontColor=#FFFFFF;container=0;labelBackgroundColor=none;" vertex="1" parent="1">
          <mxGeometry x="-178.06" y="286.89" width="46.126126126126124" height="56.21621621621621" as="geometry" />
        </mxCell>
        <mxCell id="uMrA-mLDvD93864zilOM-93" value="&lt;font color=&quot;#000033&quot; style=&quot;font-size: 12px;&quot;&gt;Harmful Data&lt;/font&gt;" style="text;html=1;align=center;verticalAlign=middle;resizable=0;points=[];autosize=1;strokeColor=none;fillColor=none;fontSize=16;container=0;labelBackgroundColor=none;fontColor=#FFFFFF;" vertex="1" parent="1">
          <mxGeometry x="-200" y="337.10837837837835" width="90" height="30" as="geometry" />
        </mxCell>
        <mxCell id="uMrA-mLDvD93864zilOM-94" style="edgeStyle=none;curved=1;rounded=0;orthogonalLoop=1;jettySize=auto;html=1;fontSize=12;startSize=8;endSize=8;labelBackgroundColor=none;strokeColor=#23445D;fontColor=default;entryX=0;entryY=0.5;entryDx=0;entryDy=0;" edge="1" parent="1" source="uMrA-mLDvD93864zilOM-92" target="uMrA-mLDvD93864zilOM-91">
          <mxGeometry relative="1" as="geometry">
            <mxPoint x="-5" y="315.89" as="targetPoint" />
          </mxGeometry>
        </mxCell>
        <mxCell id="uMrA-mLDvD93864zilOM-95" value="&lt;font style=&quot;font-size: 13px;&quot;&gt;Feature&lt;/font&gt;" style="whiteSpace=wrap;html=1;rounded=0;labelBackgroundColor=none;fillColor=#182E3E;strokeColor=#FFFFFF;fontColor=#FFFFFF;" vertex="1" parent="1">
          <mxGeometry x="-15" y="430" width="120" height="60" as="geometry" />
        </mxCell>
        <mxCell id="uMrA-mLDvD93864zilOM-96" value="" style="group" vertex="1" connectable="0" parent="1">
          <mxGeometry x="-5" y="296.89" width="100" height="55" as="geometry" />
        </mxCell>
        <mxCell id="uMrA-mLDvD93864zilOM-97" value="&lt;font style=&quot;font-size: 11px;&quot;&gt;Decoder&lt;/font&gt;" style="shape=trapezoid;perimeter=trapezoidPerimeter;whiteSpace=wrap;html=1;fixedSize=1;size=17;" vertex="1" parent="uMrA-mLDvD93864zilOM-96">
          <mxGeometry width="100" height="17" as="geometry" />
        </mxCell>
        <mxCell id="uMrA-mLDvD93864zilOM-98" value="&lt;font style=&quot;font-size: 11px;&quot;&gt;Encoder&lt;/font&gt;" style="shape=trapezoid;perimeter=trapezoidPerimeter;whiteSpace=wrap;html=1;fixedSize=1;size=20;flipH=0;flipV=1;" vertex="1" parent="uMrA-mLDvD93864zilOM-96">
          <mxGeometry y="38" width="100" height="17" as="geometry" />
        </mxCell>
        <mxCell id="uMrA-mLDvD93864zilOM-99" value="" style="ellipse;whiteSpace=wrap;html=1;aspect=fixed;" vertex="1" parent="uMrA-mLDvD93864zilOM-96">
          <mxGeometry x="70" y="23" width="10" height="10" as="geometry" />
        </mxCell>
        <mxCell id="uMrA-mLDvD93864zilOM-100" value="" style="ellipse;whiteSpace=wrap;html=1;aspect=fixed;" vertex="1" parent="uMrA-mLDvD93864zilOM-96">
          <mxGeometry x="60" y="23" width="10" height="10" as="geometry" />
        </mxCell>
        <mxCell id="uMrA-mLDvD93864zilOM-101" value="" style="ellipse;whiteSpace=wrap;html=1;aspect=fixed;" vertex="1" parent="uMrA-mLDvD93864zilOM-96">
          <mxGeometry x="50" y="23" width="10" height="10" as="geometry" />
        </mxCell>
        <mxCell id="uMrA-mLDvD93864zilOM-102" value="" style="ellipse;whiteSpace=wrap;html=1;aspect=fixed;fillColor=light-dark(#FFFFFF,#A5A5A5);" vertex="1" parent="uMrA-mLDvD93864zilOM-96">
          <mxGeometry x="40" y="23" width="10" height="10" as="geometry" />
        </mxCell>
        <mxCell id="uMrA-mLDvD93864zilOM-103" value="" style="ellipse;whiteSpace=wrap;html=1;aspect=fixed;" vertex="1" parent="uMrA-mLDvD93864zilOM-96">
          <mxGeometry x="30" y="23" width="10" height="10" as="geometry" />
        </mxCell>
        <mxCell id="uMrA-mLDvD93864zilOM-104" value="" style="ellipse;whiteSpace=wrap;html=1;aspect=fixed;fillColor=#5C5C5C;" vertex="1" parent="uMrA-mLDvD93864zilOM-96">
          <mxGeometry x="20" y="23" width="10" height="10" as="geometry" />
        </mxCell>
        <mxCell id="uMrA-mLDvD93864zilOM-105" value="" style="ellipse;whiteSpace=wrap;html=1;aspect=fixed;fillColor=#FFFFFF;" vertex="1" parent="uMrA-mLDvD93864zilOM-96">
          <mxGeometry x="10" y="23" width="10" height="10" as="geometry" />
        </mxCell>
        <mxCell id="uMrA-mLDvD93864zilOM-106" value="" style="ellipse;whiteSpace=wrap;html=1;aspect=fixed;fillColor=#FCFCFC;" vertex="1" parent="uMrA-mLDvD93864zilOM-96">
          <mxGeometry y="23" width="10" height="10" as="geometry" />
        </mxCell>
        <mxCell id="uMrA-mLDvD93864zilOM-107" value="" style="ellipse;whiteSpace=wrap;html=1;aspect=fixed;" vertex="1" parent="uMrA-mLDvD93864zilOM-96">
          <mxGeometry x="80" y="23" width="10" height="10" as="geometry" />
        </mxCell>
        <mxCell id="uMrA-mLDvD93864zilOM-108" value="" style="ellipse;whiteSpace=wrap;html=1;aspect=fixed;" vertex="1" parent="uMrA-mLDvD93864zilOM-96">
          <mxGeometry x="90" y="23" width="10" height="10" as="geometry" />
        </mxCell>
        <mxCell id="uMrA-mLDvD93864zilOM-111" value="" style="edgeStyle=none;curved=1;rounded=0;orthogonalLoop=1;jettySize=auto;html=1;fontSize=12;startSize=8;endSize=8;labelBackgroundColor=none;strokeColor=#23445D;fontColor=default;" edge="1" parent="1" source="uMrA-mLDvD93864zilOM-113" target="uMrA-mLDvD93864zilOM-115">
          <mxGeometry relative="1" as="geometry" />
        </mxCell>
        <mxCell id="uMrA-mLDvD93864zilOM-112" style="edgeStyle=orthogonalEdgeStyle;rounded=0;orthogonalLoop=1;jettySize=auto;html=1;entryX=0.5;entryY=1;entryDx=0;entryDy=0;strokeColor=#23445D;fontSize=12;startSize=8;endSize=8;exitX=0.5;exitY=0;exitDx=0;exitDy=0;" edge="1" parent="1" source="uMrA-mLDvD93864zilOM-113" target="uMrA-mLDvD93864zilOM-122">
          <mxGeometry relative="1" as="geometry" />
        </mxCell>
        <mxCell id="uMrA-mLDvD93864zilOM-113" value="&lt;font style=&quot;font-size: 13px;&quot;&gt;Model&lt;/font&gt;" style="whiteSpace=wrap;html=1;rounded=0;labelBackgroundColor=none;fillColor=#182E3E;strokeColor=#FFFFFF;fontColor=#FFFFFF;" vertex="1" parent="1">
          <mxGeometry y="-100" width="120" height="60" as="geometry" />
        </mxCell>
        <mxCell id="uMrA-mLDvD93864zilOM-114" value="" style="edgeStyle=none;curved=1;rounded=0;orthogonalLoop=1;jettySize=auto;html=1;fontSize=12;startSize=8;endSize=8;labelBackgroundColor=none;strokeColor=#23445D;fontColor=default;" edge="1" parent="1" source="uMrA-mLDvD93864zilOM-115" target="uMrA-mLDvD93864zilOM-117">
          <mxGeometry relative="1" as="geometry" />
        </mxCell>
        <mxCell id="uMrA-mLDvD93864zilOM-115" value="&lt;font style=&quot;font-size: 13px;&quot;&gt;Activations&lt;/font&gt;" style="whiteSpace=wrap;html=1;rounded=0;labelBackgroundColor=none;fillColor=#182E3E;strokeColor=#FFFFFF;fontColor=#FFFFFF;" vertex="1" parent="1">
          <mxGeometry x="240" y="-100" width="120" height="60" as="geometry" />
        </mxCell>
        <mxCell id="uMrA-mLDvD93864zilOM-116" style="edgeStyle=orthogonalEdgeStyle;rounded=0;orthogonalLoop=1;jettySize=auto;html=1;entryX=0.5;entryY=1;entryDx=0;entryDy=0;strokeColor=#23445D;fontSize=12;startSize=8;endSize=8;endArrow=classic;endFill=1;exitX=0.5;exitY=0;exitDx=0;exitDy=0;" edge="1" parent="1" source="uMrA-mLDvD93864zilOM-117" target="uMrA-mLDvD93864zilOM-122">
          <mxGeometry relative="1" as="geometry" />
        </mxCell>
        <mxCell id="uMrA-mLDvD93864zilOM-117" value="&lt;font style=&quot;font-size: 13px;&quot;&gt;SAE&lt;/font&gt;" style="whiteSpace=wrap;html=1;rounded=0;labelBackgroundColor=none;fillColor=#182E3E;strokeColor=#FFFFFF;fontColor=#FFFFFF;" vertex="1" parent="1">
          <mxGeometry x="480" y="-100" width="120" height="60" as="geometry" />
        </mxCell>
        <mxCell id="uMrA-mLDvD93864zilOM-118" value="" style="group;labelBackgroundColor=none;fontColor=#FFFFFF;" vertex="1" connectable="0" parent="1">
          <mxGeometry x="-210" y="-110" width="120" height="90.21837837837839" as="geometry" />
        </mxCell>
        <mxCell id="uMrA-mLDvD93864zilOM-119" value="" style="outlineConnect=0;fillColor=#182E3E;strokeColor=#FFFFFF;dashed=0;verticalLabelPosition=bottom;verticalAlign=top;align=center;html=1;fontSize=12;fontStyle=0;aspect=fixed;pointerEvents=1;shape=mxgraph.aws4.documents;strokeWidth=1;fontColor=#FFFFFF;container=0;labelBackgroundColor=none;" vertex="1" parent="uMrA-mLDvD93864zilOM-118">
          <mxGeometry x="36.94" y="10" width="46.126126126126124" height="56.21621621621621" as="geometry" />
        </mxCell>
        <mxCell id="uMrA-mLDvD93864zilOM-120" value="&lt;font color=&quot;#000033&quot; style=&quot;font-size: 12px;&quot;&gt;Data&lt;/font&gt;" style="text;html=1;align=center;verticalAlign=middle;resizable=0;points=[];autosize=1;strokeColor=none;fillColor=none;fontSize=16;container=0;labelBackgroundColor=none;fontColor=#FFFFFF;" vertex="1" parent="uMrA-mLDvD93864zilOM-118">
          <mxGeometry x="35" y="60.21837837837839" width="50" height="30" as="geometry" />
        </mxCell>
        <mxCell id="uMrA-mLDvD93864zilOM-121" style="edgeStyle=none;curved=1;rounded=0;orthogonalLoop=1;jettySize=auto;html=1;fontSize=12;startSize=8;endSize=8;labelBackgroundColor=none;strokeColor=#23445D;fontColor=default;" edge="1" parent="1" source="uMrA-mLDvD93864zilOM-119" target="uMrA-mLDvD93864zilOM-113">
          <mxGeometry relative="1" as="geometry" />
        </mxCell>
        <mxCell id="uMrA-mLDvD93864zilOM-122" value="&lt;font style=&quot;font-size: 13px;&quot;&gt;Evaluation&lt;/font&gt;" style="whiteSpace=wrap;html=1;rounded=0;labelBackgroundColor=none;fillColor=#182E3E;strokeColor=#FFFFFF;fontColor=#FFFFFF;" vertex="1" parent="1">
          <mxGeometry x="240" y="-220" width="120" height="60" as="geometry" />
        </mxCell>
        <mxCell id="uMrA-mLDvD93864zilOM-148" style="edgeStyle=none;curved=1;rounded=0;orthogonalLoop=1;jettySize=auto;html=1;entryX=0;entryY=0.5;entryDx=0;entryDy=0;fontSize=12;startSize=8;endSize=8;" edge="1" parent="1" source="uMrA-mLDvD93864zilOM-147" target="uMrA-mLDvD93864zilOM-52">
          <mxGeometry relative="1" as="geometry" />
        </mxCell>
        <mxCell id="uMrA-mLDvD93864zilOM-147" value="Inital Model" style="whiteSpace=wrap;html=1;fillColor=#182E3E;strokeColor=#FFFFFF;fontColor=#FFFFFF;rounded=0;labelBackgroundColor=none;" vertex="1" parent="1">
          <mxGeometry x="-241.93" y="730" width="120" height="60" as="geometry" />
        </mxCell>
        <mxCell id="uMrA-mLDvD93864zilOM-149" style="edgeStyle=none;curved=1;rounded=0;orthogonalLoop=1;jettySize=auto;html=1;fontSize=12;startSize=8;endSize=8;" edge="1" parent="1" source="uMrA-mLDvD93864zilOM-150" target="uMrA-mLDvD93864zilOM-156">
          <mxGeometry relative="1" as="geometry">
            <mxPoint x="205.97" y="906.89" as="targetPoint" />
          </mxGeometry>
        </mxCell>
        <mxCell id="uMrA-mLDvD93864zilOM-150" value="&lt;font&gt;Trained SAE&lt;/font&gt;" style="whiteSpace=wrap;html=1;rounded=0;labelBackgroundColor=none;fillColor=none;strokeColor=light-dark(#182e3f, #5c79a3);verticalAlign=top;" vertex="1" parent="1">
          <mxGeometry x="-4.03" y="860" width="120" height="90" as="geometry" />
        </mxCell>
        <mxCell id="uMrA-mLDvD93864zilOM-151" value="" style="outlineConnect=0;fillColor=#182E3E;strokeColor=#FFFFFF;dashed=0;verticalLabelPosition=bottom;verticalAlign=top;align=center;html=1;fontSize=12;fontStyle=0;aspect=fixed;pointerEvents=1;shape=mxgraph.aws4.documents;strokeWidth=1;fontColor=#FFFFFF;container=0;labelBackgroundColor=none;" vertex="1" parent="1">
          <mxGeometry x="-167.09" y="876.89" width="46.126126126126124" height="56.21621621621621" as="geometry" />
        </mxCell>
        <mxCell id="uMrA-mLDvD93864zilOM-152" value="&lt;font color=&quot;#000033&quot; style=&quot;font-size: 12px;&quot;&gt;Harmful Data&lt;/font&gt;" style="text;html=1;align=center;verticalAlign=middle;resizable=0;points=[];autosize=1;strokeColor=none;fillColor=none;fontSize=16;container=0;labelBackgroundColor=none;fontColor=#FFFFFF;" vertex="1" parent="1">
          <mxGeometry x="-189.03" y="927.1083783783783" width="90" height="30" as="geometry" />
        </mxCell>
        <mxCell id="uMrA-mLDvD93864zilOM-153" style="edgeStyle=none;curved=1;rounded=0;orthogonalLoop=1;jettySize=auto;html=1;fontSize=12;startSize=8;endSize=8;labelBackgroundColor=none;strokeColor=#23445D;fontColor=default;entryX=0;entryY=0.5;entryDx=0;entryDy=0;" edge="1" parent="1" source="uMrA-mLDvD93864zilOM-151" target="uMrA-mLDvD93864zilOM-150">
          <mxGeometry relative="1" as="geometry">
            <mxPoint x="5.97" y="905.89" as="targetPoint" />
          </mxGeometry>
        </mxCell>
        <mxCell id="uMrA-mLDvD93864zilOM-154" value="" style="edgeStyle=none;curved=1;rounded=0;orthogonalLoop=1;jettySize=auto;html=1;fontSize=12;startSize=8;endSize=8;" edge="1" parent="1" source="uMrA-mLDvD93864zilOM-156" target="uMrA-mLDvD93864zilOM-170">
          <mxGeometry relative="1" as="geometry" />
        </mxCell>
        <mxCell id="uMrA-mLDvD93864zilOM-155" value="Steer" style="edgeLabel;html=1;align=center;verticalAlign=middle;resizable=0;points=[];fontSize=12;" vertex="1" connectable="0" parent="uMrA-mLDvD93864zilOM-154">
          <mxGeometry x="0.0267" y="-2" relative="1" as="geometry">
            <mxPoint as="offset" />
          </mxGeometry>
        </mxCell>
        <mxCell id="uMrA-mLDvD93864zilOM-156" value="&lt;font style=&quot;font-size: 13px;&quot;&gt;Feature&lt;/font&gt;" style="whiteSpace=wrap;html=1;rounded=0;labelBackgroundColor=none;fillColor=#182E3E;strokeColor=#FFFFFF;fontColor=#FFFFFF;" vertex="1" parent="1">
          <mxGeometry x="-4.03" y="1020" width="120" height="60" as="geometry" />
        </mxCell>
        <mxCell id="uMrA-mLDvD93864zilOM-157" value="" style="group" vertex="1" connectable="0" parent="1">
          <mxGeometry x="5.97" y="886.89" width="100" height="55" as="geometry" />
        </mxCell>
        <mxCell id="uMrA-mLDvD93864zilOM-158" value="&lt;font style=&quot;font-size: 11px;&quot;&gt;Decoder&lt;/font&gt;" style="shape=trapezoid;perimeter=trapezoidPerimeter;whiteSpace=wrap;html=1;fixedSize=1;size=17;" vertex="1" parent="uMrA-mLDvD93864zilOM-157">
          <mxGeometry width="100" height="17" as="geometry" />
        </mxCell>
        <mxCell id="uMrA-mLDvD93864zilOM-159" value="&lt;font style=&quot;font-size: 11px;&quot;&gt;Encoder&lt;/font&gt;" style="shape=trapezoid;perimeter=trapezoidPerimeter;whiteSpace=wrap;html=1;fixedSize=1;size=20;flipH=0;flipV=1;" vertex="1" parent="uMrA-mLDvD93864zilOM-157">
          <mxGeometry y="38" width="100" height="17" as="geometry" />
        </mxCell>
        <mxCell id="uMrA-mLDvD93864zilOM-160" value="" style="ellipse;whiteSpace=wrap;html=1;aspect=fixed;" vertex="1" parent="uMrA-mLDvD93864zilOM-157">
          <mxGeometry x="70" y="23" width="10" height="10" as="geometry" />
        </mxCell>
        <mxCell id="uMrA-mLDvD93864zilOM-161" value="" style="ellipse;whiteSpace=wrap;html=1;aspect=fixed;" vertex="1" parent="uMrA-mLDvD93864zilOM-157">
          <mxGeometry x="60" y="23" width="10" height="10" as="geometry" />
        </mxCell>
        <mxCell id="uMrA-mLDvD93864zilOM-162" value="" style="ellipse;whiteSpace=wrap;html=1;aspect=fixed;" vertex="1" parent="uMrA-mLDvD93864zilOM-157">
          <mxGeometry x="50" y="23" width="10" height="10" as="geometry" />
        </mxCell>
        <mxCell id="uMrA-mLDvD93864zilOM-163" value="" style="ellipse;whiteSpace=wrap;html=1;aspect=fixed;fillColor=light-dark(#FFFFFF,#A5A5A5);" vertex="1" parent="uMrA-mLDvD93864zilOM-157">
          <mxGeometry x="40" y="23" width="10" height="10" as="geometry" />
        </mxCell>
        <mxCell id="uMrA-mLDvD93864zilOM-164" value="" style="ellipse;whiteSpace=wrap;html=1;aspect=fixed;" vertex="1" parent="uMrA-mLDvD93864zilOM-157">
          <mxGeometry x="30" y="23" width="10" height="10" as="geometry" />
        </mxCell>
        <mxCell id="uMrA-mLDvD93864zilOM-165" value="" style="ellipse;whiteSpace=wrap;html=1;aspect=fixed;fillColor=#5C5C5C;" vertex="1" parent="uMrA-mLDvD93864zilOM-157">
          <mxGeometry x="20" y="23" width="10" height="10" as="geometry" />
        </mxCell>
        <mxCell id="uMrA-mLDvD93864zilOM-166" value="" style="ellipse;whiteSpace=wrap;html=1;aspect=fixed;fillColor=#FFFFFF;" vertex="1" parent="uMrA-mLDvD93864zilOM-157">
          <mxGeometry x="10" y="23" width="10" height="10" as="geometry" />
        </mxCell>
        <mxCell id="uMrA-mLDvD93864zilOM-167" value="" style="ellipse;whiteSpace=wrap;html=1;aspect=fixed;fillColor=#FCFCFC;" vertex="1" parent="uMrA-mLDvD93864zilOM-157">
          <mxGeometry y="23" width="10" height="10" as="geometry" />
        </mxCell>
        <mxCell id="uMrA-mLDvD93864zilOM-168" value="" style="ellipse;whiteSpace=wrap;html=1;aspect=fixed;" vertex="1" parent="uMrA-mLDvD93864zilOM-157">
          <mxGeometry x="80" y="23" width="10" height="10" as="geometry" />
        </mxCell>
        <mxCell id="uMrA-mLDvD93864zilOM-169" value="" style="ellipse;whiteSpace=wrap;html=1;aspect=fixed;" vertex="1" parent="uMrA-mLDvD93864zilOM-157">
          <mxGeometry x="90" y="23" width="10" height="10" as="geometry" />
        </mxCell>
        <mxCell id="uMrA-mLDvD93864zilOM-175" value="" style="edgeStyle=orthogonalEdgeStyle;rounded=0;orthogonalLoop=1;jettySize=auto;html=1;fontSize=12;startSize=8;endSize=8;entryX=1;entryY=0.5;entryDx=0;entryDy=0;exitX=0.5;exitY=1;exitDx=0;exitDy=0;" edge="1" parent="1" source="uMrA-mLDvD93864zilOM-170" target="uMrA-mLDvD93864zilOM-174">
          <mxGeometry relative="1" as="geometry" />
        </mxCell>
        <mxCell id="uMrA-mLDvD93864zilOM-170" value="Modified Model" style="whiteSpace=wrap;html=1;fillColor=#182E3E;strokeColor=#FFFFFF;fontColor=#FFFFFF;rounded=0;labelBackgroundColor=none;" vertex="1" parent="1">
          <mxGeometry x="230.97" y="1020" width="120" height="60" as="geometry" />
        </mxCell>
        <mxCell id="uMrA-mLDvD93864zilOM-171" style="edgeStyle=none;curved=1;rounded=0;orthogonalLoop=1;jettySize=auto;html=1;entryX=0;entryY=0.5;entryDx=0;entryDy=0;fontSize=12;startSize=8;endSize=8;" edge="1" parent="1" source="uMrA-mLDvD93864zilOM-172" target="uMrA-mLDvD93864zilOM-156">
          <mxGeometry relative="1" as="geometry" />
        </mxCell>
        <mxCell id="uMrA-mLDvD93864zilOM-176" style="edgeStyle=orthogonalEdgeStyle;rounded=0;orthogonalLoop=1;jettySize=auto;html=1;entryX=0;entryY=0.5;entryDx=0;entryDy=0;fontSize=12;startSize=8;endSize=8;exitX=0.5;exitY=1;exitDx=0;exitDy=0;" edge="1" parent="1" source="uMrA-mLDvD93864zilOM-172" target="uMrA-mLDvD93864zilOM-174">
          <mxGeometry relative="1" as="geometry" />
        </mxCell>
        <mxCell id="uMrA-mLDvD93864zilOM-172" value="Inital Model" style="whiteSpace=wrap;html=1;fillColor=#182E3E;strokeColor=#FFFFFF;fontColor=#FFFFFF;rounded=0;labelBackgroundColor=none;" vertex="1" parent="1">
          <mxGeometry x="-240.96" y="1020" width="120" height="60" as="geometry" />
        </mxCell>
        <mxCell id="uMrA-mLDvD93864zilOM-174" value="Evaluation" style="whiteSpace=wrap;html=1;fillColor=#182E3E;strokeColor=#FFFFFF;fontColor=#FFFFFF;rounded=0;labelBackgroundColor=none;" vertex="1" parent="1">
          <mxGeometry x="-4.029999999999973" y="1150" width="120" height="60" as="geometry" />
        </mxCell>
      </root>
    </mxGraphModel>
  </diagram>
</mxfile>
